<?xml version="1.0" encoding="UTF-8" standalone="no"?>
<!-- Created with Inkscape (http://www.inkscape.org/) -->

<svg
   width="30mm"
   height="4.8249526mm"
   viewBox="0 0 30.000001 4.8249525"
   version="1.1"
   id="svg5"
   inkscape:version="1.2.1 (9c6d41e410, 2022-07-14, custom)"
   sodipodi:docname="unified_horizontal_logo.svg"
   xmlns:inkscape="http://www.inkscape.org/namespaces/inkscape"
   xmlns:sodipodi="http://sodipodi.sourceforge.net/DTD/sodipodi-0.dtd"
   xmlns="http://www.w3.org/2000/svg"
   xmlns:svg="http://www.w3.org/2000/svg">
  <sodipodi:namedview
     id="namedview7"
     pagecolor="#ffffff"
     bordercolor="#666666"
     borderopacity="1.0"
     inkscape:showpageshadow="2"
     inkscape:pageopacity="0.0"
     inkscape:pagecheckerboard="0"
     inkscape:deskcolor="#d1d1d1"
     inkscape:document-units="mm"
     showgrid="false"
     inkscape:zoom="10.635496"
     inkscape:cx="42.781269"
     inkscape:cy="11.23596"
     inkscape:window-width="1920"
     inkscape:window-height="1043"
     inkscape:window-x="1920"
     inkscape:window-y="305"
     inkscape:window-maximized="1"
     inkscape:current-layer="text614" />
  <defs
     id="defs2">
    <rect
       x="-122.4464"
       y="-45.831226"
       width="311.93196"
       height="62.642152"
       id="rect923" />
    <rect
       x="111.84594"
       y="-179.15984"
       width="1405.2086"
       height="317.75562"
       id="rect511" />
    <rect
       x="111.84594"
       y="-179.15984"
       width="1405.2086"
       height="317.75562"
       id="rect616" />
    <rect
       x="-122.4464"
       y="-45.831226"
       width="311.93196"
       height="62.642152"
       id="rect931" />
  </defs>
  <g
     inkscape:label="Layer 1"
     inkscape:groupmode="layer"
     id="layer1"
     transform="translate(148.37847,-93.824591)">
    <g
       id="g716"
       transform="matrix(0.06067771,0,0,0.06067771,-139.3752,79.874321)">
      <g
         id="g610"
         transform="matrix(0.89894483,0,0,0.89894483,-109.12802,220.49906)">
        <path
           id="path592"
           style="fill-opacity:0.25;stroke-width:2;stroke-linecap:round;stroke-linejoin:round;stroke-opacity:0.496781;paint-order:stroke fill markers"
           inkscape:transform-center-x="-0.0033536092"
           inkscape:transform-center-y="-1.7036148"
           transform="matrix(1.3049259,-0.66389531,0.66389531,1.3049259,-200.28798,-38.29399)"
           d="m 79.359624,131.65616 -2.006632,12.8511 -5.879631,-11.60204 -12.842214,2.06279 9.217297,-9.17709 -5.930293,-11.57624 11.576234,5.9303 9.177091,-9.2173 -2.06279,12.84221 11.602047,5.87963 z" />
        <path
           id="path594"
           style="fill-opacity:0.25;stroke-width:2;stroke-linecap:round;stroke-linejoin:round;stroke-opacity:0.496781;paint-order:stroke fill markers"
           inkscape:transform-center-x="-0.0033536092"
           inkscape:transform-center-y="-1.7036148"
           transform="matrix(1.3049259,-0.66389531,0.66389531,1.3049259,-144.70812,-38.293993)"
           d="m 79.359624,131.65616 -2.006632,12.8511 -5.879631,-11.60204 -12.842214,2.06279 9.217297,-9.17709 -5.930293,-11.57624 11.576234,5.9303 9.177091,-9.2173 -2.06279,12.84221 11.602047,5.87963 z" />
        <path
           id="path596"
           style="fill-opacity:0.25;stroke-width:2;stroke-linecap:round;stroke-linejoin:round;stroke-opacity:0.496781;paint-order:stroke fill markers"
           inkscape:transform-center-x="-0.0033536092"
           inkscape:transform-center-y="-1.7036148"
           transform="matrix(1.3049259,-0.66389531,0.66389531,1.3049259,-89.128272,-38.29399)"
           d="m 79.359624,131.65616 -2.006632,12.8511 -5.879631,-11.60204 -12.842214,2.06279 9.217297,-9.17709 -5.930293,-11.57624 11.576234,5.9303 9.177091,-9.2173 -2.06279,12.84221 11.602047,5.87963 z" />
        <path
           id="path598"
           style="fill-opacity:0.25;stroke-width:2;stroke-linecap:round;stroke-linejoin:round;stroke-opacity:0.496781;paint-order:stroke fill markers"
           inkscape:transform-center-x="-0.0033536092"
           inkscape:transform-center-y="-1.7036148"
           transform="matrix(1.3049259,-0.66389531,0.66389531,1.3049259,-33.548418,-38.29399)"
           d="m 79.359624,131.65616 -2.006632,12.8511 -5.879631,-11.60204 -12.842214,2.06279 9.217297,-9.17709 -5.930293,-11.57624 11.576234,5.9303 9.177091,-9.2173 -2.06279,12.84221 11.602047,5.87963 z" />
        <path
           id="path600"
           style="fill-opacity:0.25;stroke-width:2;stroke-linecap:round;stroke-linejoin:round;stroke-opacity:0.496781;paint-order:stroke fill markers"
           inkscape:transform-center-x="-0.0033536092"
           inkscape:transform-center-y="-1.7036148"
           transform="matrix(1.3049259,-0.66389531,0.66389531,1.3049259,22.031438,-38.293991)"
           d="m 79.359624,131.65616 -2.006632,12.8511 -5.879631,-11.60204 -12.842214,2.06279 9.217297,-9.17709 -5.930293,-11.57624 11.576234,5.9303 9.177091,-9.2173 -2.06279,12.84221 11.602047,5.87963 z" />
        <path
           id="path602"
           style="fill-opacity:0.25;stroke-width:2;stroke-linecap:round;stroke-linejoin:round;stroke-opacity:0.496781;paint-order:stroke fill markers"
           inkscape:transform-center-x="-0.0033536092"
           inkscape:transform-center-y="-1.7036148"
           transform="matrix(1.3049259,-0.66389531,0.66389531,1.3049259,77.61129,-38.29399)"
           d="m 79.359624,131.65616 -2.006632,12.8511 -5.879631,-11.60204 -12.842214,2.06279 9.217297,-9.17709 -5.930293,-11.57624 11.576234,5.9303 9.177091,-9.2173 -2.06279,12.84221 11.602047,5.87963 z" />
        <path
           id="path604"
           style="fill-opacity:0.25;stroke-width:2;stroke-linecap:round;stroke-linejoin:round;stroke-opacity:0.496781;paint-order:stroke fill markers"
           inkscape:transform-center-x="-0.0033536092"
           inkscape:transform-center-y="-1.7036148"
           transform="matrix(1.3049259,-0.66389531,0.66389531,1.3049259,133.19115,-38.29399)"
           d="m 79.359624,131.65616 -2.006632,12.8511 -5.879631,-11.60204 -12.842214,2.06279 9.217297,-9.17709 -5.930293,-11.57624 11.576234,5.9303 9.177091,-9.2173 -2.06279,12.84221 11.602047,5.87963 z" />
        <path
           id="path606"
           style="fill-opacity:0.25;stroke-width:2;stroke-linecap:round;stroke-linejoin:round;stroke-opacity:0.496781;paint-order:stroke fill markers"
           inkscape:transform-center-x="-0.0033536092"
           inkscape:transform-center-y="-1.7036148"
           transform="matrix(1.3049259,-0.66389531,0.66389531,1.3049259,188.771,-38.293991)"
           d="m 79.359624,131.65616 -2.006632,12.8511 -5.879631,-11.60204 -12.842214,2.06279 9.217297,-9.17709 -5.930293,-11.57624 11.576234,5.9303 9.177091,-9.2173 -2.06279,12.84221 11.602047,5.87963 z" />
        <path
           id="path608"
           style="fill-opacity:0.25;stroke-width:2;stroke-linecap:round;stroke-linejoin:round;stroke-opacity:0.496781;paint-order:stroke fill markers"
           inkscape:transform-center-x="-0.0033536092"
           inkscape:transform-center-y="-1.7036148"
           transform="matrix(1.3049259,-0.66389531,0.66389531,1.3049259,244.35085,-38.293989)"
           d="m 79.359624,131.65616 -2.006632,12.8511 -5.879631,-11.60204 -12.842214,2.06279 9.217297,-9.17709 -5.930293,-11.57624 11.576234,5.9303 9.177091,-9.2173 -2.06279,12.84221 11.602047,5.87963 z" />
        <path
           id="path820"
           style="fill-opacity:0.25;stroke-width:2.9282;stroke-linecap:round;stroke-linejoin:round;stroke-opacity:0.496781;paint-order:stroke fill markers"
           inkscape:transform-center-x="-0.0033536092"
           inkscape:transform-center-y="-1.7036148"
           d="m 490.89504,80.821062 5.91328,18.101927 -15.37503,-11.236343 -15.38866,11.217673 5.93527,-18.094742 -15.42401,-11.169042 19.04323,0.0532 5.8561,-18.120522 5.83409,18.12761 19.04327,-0.03006 z" />
      </g>
      <g
         aria-label="UNIFIED"
         transform="matrix(0.76206745,0,0,0.76206745,-66.818061,360.92242)"
         id="text614"
         style="font-size:40px;line-height:1.25;font-family:Times;-inkscape-font-specification:Times;white-space:pre;shape-inside:url(#rect616)">
        <g
           aria-label="UNIFIED S1"
           transform="matrix(0.99836215,0,0,0.99836215,197.56543,-133.39135)"
           id="text929"
           style="shape-inside:url(#rect931)">
          <path
             d="m -92.527266,-10.432031 c 6.4,0 7.72,-2.76 7.72,-6.8 v -21.36 h -5.32 v 21.4 c 0,1.68 -1.12,2.6 -3.52,2.6 h -17.480004 c -2.4,0 -3.52,-0.92 -3.52,-2.6 v -21.4 h -5.32 v 21.36 c 0,4.04 2.44,6.8 8.84,6.8 z"
             style="font-family:Pirulen;-inkscape-font-specification:Pirulen"
             id="path933" />
          <path
             d="m -42.447255,-10.432031 v -28.16 h -4.64 v 20.92 l -28.04,-20.92 h -4.6 v 28.16 h 4.64 v -21.92 l 30.04,21.92 z"
             style="font-family:Pirulen;-inkscape-font-specification:Pirulen"
             id="path935" />
          <path
             d="m -31.727244,-10.432031 v -28.16 h -5.32 v 28.16 z"
             style="font-family:Pirulen;-inkscape-font-specification:Pirulen"
             id="path937" />
          <path
             d="m 1.0327844,-22.032031 v -4.16 H -21.007216 v -8.24 H 2.6327844 v -4.16 H -26.327216 v 28.16 h 5.32 v -11.6 z"
             style="font-family:Pirulen;-inkscape-font-specification:Pirulen"
             id="path939" />
          <path
             d="m 11.032766,-10.432031 v -28.16 H 5.7127655 v 28.16 z"
             style="font-family:Pirulen;-inkscape-font-specification:Pirulen"
             id="path941" />
          <path
             d="m 45.392794,-10.432031 v -4.16 h -23.64 v -8.64 h 22.44 v -4.16 h -22.44 v -7.04 h 23.64 v -4.16 h -28.96 v 28.16 z"
             style="font-family:Pirulen;-inkscape-font-specification:Pirulen"
             id="path943" />
          <path
             d="m 75.71279,-10.432031 c 7.96,0 10.4,-2.76 10.4,-8.04 v -11.8 c 0,-5.56 -2.44,-8.32 -10.4,-8.32 h -25.8 v 28.16 z m 5.08,-8.08 c 0,3 -1.12,3.92 -5.08,3.92 h -20.48 v -19.84 h 20.48 c 3.96,0 5.08,0.92 5.08,4.16 z"
             style="font-family:Pirulen;-inkscape-font-specification:Pirulen"
             id="path945" />
          <path
             d="m 135.95282,-10.432031 c 6.4,0 8.84,-2.76 8.84,-6.8 v -3.48 c 0,-4.04 -2.44,-6.8 -8.84,-6.8 h -16.56 c -2.4,0 -3.52,-0.92 -3.52,-2.6 v -1.72 c 0,-1.68 1.12,-2.6 3.52,-2.6 h 23.84 v -4.16 h -23.84 c -6.4,0 -8.84,2.76 -8.84,6.8 v 1.64 c 0,4.04 2.44,6.8 8.84,6.8 h 16.56 c 2.4,0 3.52,0.92 3.52,2.6 v 3.56 c 0,1.68 -1.12,2.6 -3.52,2.6 h -24.48 v 4.16 z"
             style="font-family:Pirulen;-inkscape-font-specification:Pirulen"
             id="path947" />
          <path
             d="m 159.63283,-10.432031 v -28.16 h -7.4 l -5.48,6.2 h 5.6 l 1.96,-2.24 v 24.2 z"
             style="font-family:Pirulen;-inkscape-font-specification:Pirulen"
             id="path949" />
        </g>
        <text
           xml:space="preserve"
           transform="matrix(0.99836215,0,0,0.99836215,297.95189,-351.15916)"
           id="text921"
           style="font-size:40px;line-height:1.25;font-family:Times;-inkscape-font-specification:Times;white-space:pre;shape-inside:url(#rect923)"><tspan
             x="-122.44727"
             y="-10.432031"
             id="tspan987"><tspan
               style="font-family:Pirulen;-inkscape-font-specification:Pirulen"
               id="tspan985">UNIFIED S1</tspan></tspan></text>
      </g>
    </g>
  </g>
</svg>
